<svg x="0" y="0" width="1200" height="600" version="1.1" xmlns="http://www.w3.org/2000/svg" xmlns:xlink="http://www.w3.org/1999/xlink"><g fill="#000000" stroke="none" stroke-width="1" stroke-linecap="butt" stroke-linejoin="miter" stroke-miterlimit="10" stroke-dasharray="" stroke-dashoffset="0" font-family="sans-serif" font-weight="normal" font-size="12" text-anchor="start" mix-blend-mode="normal"><path d="M865.5,329.5c0.46114,2.21176 1.31888,3.73875 1,6c-0.31888,2.26125 -1.8144,5.25676 -2,9c-0.1856,3.74324 0.93871,8.23421 1.5,11.5c0.56129,3.26579 0.55956,5.30641 0,8c-0.55956,2.69359 -1.67695,6.04015 -3,9c-1.32305,2.95985 -2.85177,5.53301 -5,9c-2.14823,3.46699 -4.91599,7.82783 -8.14532,12.09935c-3.22933,4.27152 -6.92023,8.45373 -10.85542,13.43973c-3.93518,4.98599 -8.11465,10.77577 -11.6055,16.56101c-3.49085,5.78523 -6.29309,11.56593 -9.46329,14.85794c-3.1702,3.29202 -6.70838,4.09536 -11.14928,4.7611c-4.4409,0.66574 -9.78453,1.19388 -15.38105,0.49556c-5.59652,-0.69832 -11.44594,-2.62309 -17.14852,-4.9406c-5.70258,-2.31751 -11.25833,-5.02776 -16.69642,-8.11732c-5.43809,-3.08956 -10.75852,-6.55843 -16.02804,-10.25827c-5.26952,-3.69984 -10.48814,-7.63065 -15.74185,-11.65311c-5.25371,-4.02246 -10.5425,-8.13656 -15.82745,-12.22668c-5.28495,-4.09012 -10.56606,-8.15626 -15.88482,-12.2192c-5.31876,-4.06294 -10.67517,-8.1227 -15.87734,-12.16183c-5.20217,-4.03913 -10.2501,-8.05764 -15.37017,-12.21974c-5.12007,-4.1621 -10.31227,-8.46779 -15.42808,-12.72691c-5.11581,-4.25912 -10.15523,-8.47168 -15.42808,-12.72691c-5.27285,-4.25523 -10.77914,-8.55315 -16.22193,-12.62802c-5.44278,-4.07488 -10.82206,-7.92672 -16.12303,-11.83418c-5.30098,-3.90746 -10.52366,-7.87054 -16.12303,-11.83418c-5.59937,-3.96364 -11.57543,-7.92785 -17.14604,-11.63844c-5.57061,-3.71059 -10.73576,-7.16757 -16.9503,-10.61543c-6.21453,-3.44786 -13.47844,-6.88661 -20.21301,-9.42833c-6.73457,-2.54172 -12.93981,-4.18642 -19.02591,-6.16562c-6.0861,-1.9792 -12.05306,-4.2929 -19.02591,-6.16562c-6.97285,-1.87271 -14.95159,-3.30444 -21.98693,-4.14369c-7.03534,-0.83925 -13.12728,-1.08604 -19.965,-1.18267c-6.83772,-0.09663 -14.42121,-0.0431 -21.24072,0.10582c-6.81951,0.14892 -12.87504,0.39325 -19.95223,1.38154c-7.07718,0.98829 -15.17602,2.72054 -21.97486,4.42378c-6.79884,1.70324 -12.29767,3.37747 -18.93261,6.44642c-6.63494,3.06895 -14.40599,7.53262 -20.36178,11.87538c-5.95579,4.34276 -10.09633,8.5646 -14.93281,13.30455c-4.83648,4.73995 -10.36891,9.99802 -14.77086,16.40115c-4.40195,6.40313 -7.67341,13.95131 -10.24595,20.51713c-2.57254,6.56582 -4.44614,12.14927 -5.96802,19.08881c-1.52187,6.93955 -2.69202,15.23519 -3.07891,22.87654c-0.38689,7.64135 0.00947,14.62841 2.50348,21.40627c2.49402,6.77787 7.08569,13.34655 11.26697,18.34465c4.18127,4.99809 7.95214,8.4256 13.54573,11.71143c5.59359,3.28583 13.0099,6.43 19.81892,8.17528c6.80902,1.74529 13.01076,2.0917 19.8285,2.61353c6.81774,0.52183 14.25147,1.21908 21.61956,0.97742c7.36808,-0.24166 14.67052,-1.42222 21.39685,-2.62178c6.72633,-1.19956 12.87655,-2.41812 19.5887,-4.03519c6.71215,-1.61707 13.98622,-3.63265 20.84349,-6.40265c6.85727,-2.77001 13.29774,-6.29444 19.34511,-10.65988c6.04736,-4.36544 11.70162,-9.57189 16.47667,-15.36426c4.77505,-5.79236 8.67091,-12.17063 11.97092,-18.59278c3.30001,-6.42214 6.00418,-12.88815 7.97386,-20.01974c1.96968,-7.13159 3.20487,-14.92875 3.65739,-22.21111c0.45251,-7.28236 0.12234,-14.04993 -0.18781,-20.72986c-0.31016,-6.67993 -0.6003,-13.27223 -0.92561,-19.97857c-0.32531,-6.70634 -0.6858,-13.52671 -1.23811,-20.25506c-0.5523,-6.72836 -1.29642,-13.3647 -1.5146,-19.94257c-0.21817,-6.57787 0.0896,-13.09727 -1.31398,-19.76695c-1.40357,-6.66968 -4.51849,-13.48965 -0.97794,-19.82224c3.54054,-6.3326 13.73654,-12.17783 -2.90764,-17.07503c-16.64417,-4.8972 -60.12851,-8.84636 -3.5,-11.5c56.62851,-2.65364 213.36987,-4.01175 212,-4c-1.36987,0.01175 -160.85095,1.39337 -220,4c-59.14905,2.60663 -17.96605,6.43827 -3.5,11.5c14.46605,5.06173 2.21516,11.35354 -2.07503,17.90764c-4.29018,6.55409 -0.61965,13.37046 0.99303,20.12799c1.61268,6.75754 1.16752,13.45624 1.33899,20.14319c0.17146,6.68695 0.95955,13.36214 1.5146,19.94257c0.55505,6.58043 0.87707,13.06609 1.2021,19.66607c0.32504,6.59998 0.65309,13.31427 0.92561,19.97857c0.27252,6.6643 0.48951,13.2786 0.17432,19.24077c-0.31519,5.96218 -1.16255,11.27223 -2.78253,16.89815c-1.61997,5.62592 -4.01255,11.56771 -6.77897,17.01979c-2.76642,5.45207 -5.90669,10.41443 -9.54685,14.8278c-3.64016,4.41337 -7.78022,8.27775 -12.50738,11.66295c-4.72716,3.3852 -10.04143,6.29121 -15.4736,8.52653c-5.43216,2.23532 -10.98221,3.79996 -17.22123,5.28998c-6.23902,1.49002 -13.16701,2.90542 -19.5887,4.03519c-6.42169,1.12976 -12.33707,1.97388 -18.1753,2.22704c-5.83823,0.25316 -11.5993,-0.08462 -18.19239,-0.82247c-6.59309,-0.73785 -14.0182,-1.87577 -19.8285,-2.61353c-5.8103,-0.73776 -10.00579,-1.07537 -14.26675,-2.60395c-4.26095,-1.52857 -8.58736,-4.24811 -10.71143,-7.45427c-2.12407,-3.20616 -2.0458,-6.89893 -2.65535,-12.26697c-0.60956,-5.36804 -1.90695,-12.41136 -2.12766,-18.19277c-0.22071,-5.78142 0.63526,-10.30094 2.18029,-16.1997c1.54502,-5.89877 3.77909,-13.17678 5.96802,-19.08881c2.18893,-5.91203 4.3327,-10.45809 7.39633,-14.81088c3.06363,-4.35279 7.04711,-8.51233 11.83621,-13.1426c4.78911,-4.63027 10.38384,-9.73128 14.93281,-13.30455c4.54897,-3.57327 8.05217,-5.6188 13.50364,-7.87558c5.45147,-2.25679 12.85122,-4.72483 18.93261,-6.44642c6.08139,-1.72159 10.84444,-2.69672 16.90998,-3.40417c6.06554,-0.70745 13.43357,-1.14722 19.95223,-1.38154c6.51866,-0.23432 12.18795,-0.26318 18.67651,-0.09305c6.48856,0.17013 13.79641,0.53926 19.965,1.18267c6.1686,0.64341 11.19795,1.56109 17.00398,3.2046c5.80603,1.64351 12.38875,4.01284 19.02591,6.16562c6.63716,2.15278 13.32875,4.089 19.02591,6.16562c5.69716,2.07661 10.39987,4.29362 15.76319,7.35272c5.36332,3.0591 11.38726,6.96029 16.9503,10.61543c5.56304,3.65515 10.66518,7.06425 15.92729,10.81118c5.26211,3.74693 10.6842,7.83167 16.12303,11.83418c5.43884,4.00251 10.89443,7.92277 16.12303,11.83418c5.22861,3.9114 10.23024,7.81395 15.32919,11.93307c5.09895,4.11912 10.29523,8.45482 15.42808,12.72691c5.13285,4.27209 10.20228,8.48057 15.42808,12.72691c5.2258,4.24634 10.60798,8.53053 15.93525,12.669c5.32727,4.13847 10.59965,8.13121 15.87734,12.16183c5.27769,4.03062 10.56071,8.09911 15.81997,12.16931c5.25926,4.0702 10.49476,8.14211 15.82745,12.22668c5.3327,4.08457 10.76259,8.18179 16.40102,12.14108c5.63843,3.95929 11.4854,7.78063 17.62465,11.28013c6.13925,3.4995 12.57078,6.67715 19.19086,9.33004c6.62008,2.65289 13.4287,4.78102 21.08586,6.07498c7.65716,1.29395 16.16284,1.75373 23.71906,-0.76421c7.55622,-2.51794 14.16297,-8.01359 19.37794,-13.06534c5.21498,-5.05176 9.03819,-9.65961 12.94188,-14.67576c3.90369,-5.01614 7.88787,-10.44057 11.34854,-16.19432c3.46067,-5.75375 6.39785,-11.83682 8.8509,-17.05413c2.45306,-5.2173 4.422,-9.56884 5.90065,-14.14532c1.47864,-4.57648 2.46698,-9.37789 3,-13c0.53302,-3.62211 0.61072,-6.06491 1,-9c0.38928,-2.93509 1.09015,-6.36248 2,-10c0.90985,-3.63752 2.02867,-7.48517 1.5,-11.5c-0.52867,-4.01483 -2.76851,-8.20325 -4,-11c-1.23149,-2.79675 -1.67545,-4.22444 -3,-6c-1.32455,-1.77556 -3.47018,-3.89214 -4.5,-3.5c-1.02982,0.39214 -0.96114,3.28824 -0.5,5.5z"></path></g></svg>